<svg xmlns="http://www.w3.org/2000/svg" viewBox="0 0 122.75 95.72"><defs><style>.cls-1{fill:#d11149;}</style></defs><title>logo</title><g id="Layer_2" data-name="Layer 2"><g id="Layer_1-2" data-name="Layer 1"><path class="cls-1" d="M86.55,69.72h21.3q-.9,4.11-5.3,7.85t-12.2,3.75a20.87,20.87,0,0,1-15.2-5.95Q69,69.43,69.05,58.82q0-10.89,6.35-16.55A21.28,21.28,0,0,1,90,36.62q7.8,0,12.15,4A17.07,17.07,0,0,1,107.55,49l15.2-5.3a31.91,31.91,0,0,0-10.9-15.4q-8.1-6.5-21.9-6.5A36.29,36.29,0,0,0,63.8,32.17a33.75,33.75,0,0,0-8.36,12.64h0c-.07.25-.15.49-.23.74l-.21.61A19.76,19.76,0,0,1,49.5,54Q45,58.1,36.8,58.1a20.17,20.17,0,0,1-14.4-5.7q-6-5.7-6-15.3,0-10.39,6.1-16A20.12,20.12,0,0,1,36.6,15.4a21.82,21.82,0,0,1,7.9,1.35,14.52,14.52,0,0,1,5.5,3.5,20.33,20.33,0,0,1,3.1,4.2,17.24,17.24,0,0,1,1.6,4.15A40.37,40.37,0,0,1,67.47,17.66c-.25-.45-.61-1.1-1.07-1.86a41.15,41.15,0,0,0-6.1-7.6,27.57,27.57,0,0,0-9.95-5.95A39.78,39.78,0,0,0,36.6,0,35.69,35.69,0,0,0,10.7,10.45Q0,20.91,0,37.1T10.6,63.65Q21.21,73.9,36.8,73.9A39.09,39.09,0,0,0,51,71.45a33.41,33.41,0,0,0,3.46-1.55,33.66,33.66,0,0,0,9,15.57Q73.75,95.73,89,95.72a27.43,27.43,0,0,0,12.2-2.5,19.73,19.73,0,0,0,7.7-6.2l1,7.2h12.8V56.32H86.55Z"/></g></g></svg>